
<svg width="759px" height="725px" viewBox="0 0 759 725" version="1.1" xmlns="http://www.w3.org/2000/svg" xmlns:xlink="http://www.w3.org/1999/xlink">
    <defs>
        <path d="M398,134.618802 L433.961524,155.381198 C438.911941,158.239323 441.961524,163.521355 441.961524,169.237604 L441.961524,210.762396 C441.961524,216.478645 438.911941,221.760677 433.961524,224.618802 L398,245.381198 C393.049583,248.239323 386.950417,248.239323 382,245.381198 L346.038476,224.618802 C341.088059,221.760677 338.038476,216.478645 338.038476,210.762396 L338.038476,169.237604 C338.038476,163.521355 341.088059,158.239323 346.038476,155.381198 L382,134.618802 C386.950417,131.760677 393.049583,131.760677 398,134.618802 Z" id="path-x-jyb13mc1-1"></path>
        <path d="M488,294.618802 L523.961524,315.381198 C528.911941,318.239323 531.961524,323.521355 531.961524,329.237604 L531.961524,370.762396 C531.961524,376.478645 528.911941,381.760677 523.961524,384.618802 L488,405.381198 C483.049583,408.239323 476.950417,408.239323 472,405.381198 L436.038476,384.618802 C431.088059,381.760677 428.038476,376.478645 428.038476,370.762396 L428.038476,329.237604 C428.038476,323.521355 431.088059,318.239323 436.038476,315.381198 L472,294.618802 C476.950417,291.760677 483.049583,291.760677 488,294.618802 Z" id="path-x-jyb13mc1-2"></path>
        <path d="M308,294.618802 L343.961524,315.381198 C348.911941,318.239323 351.961524,323.521355 351.961524,329.237604 L351.961524,370.762396 C351.961524,376.478645 348.911941,381.760677 343.961524,384.618802 L308,405.381198 C303.049583,408.239323 296.950417,408.239323 292,405.381198 L256.038476,384.618802 C251.088059,381.760677 248.038476,376.478645 248.038476,370.762396 L248.038476,329.237604 C248.038476,323.521355 251.088059,318.239323 256.038476,315.381198 L292,294.618802 C296.950417,291.760677 303.049583,291.760677 308,294.618802 Z" id="path-x-jyb13mc1-3"></path>
        <path d="M409.805828,611.513983 C416.709387,611.513983 419.84468,592.923527 419.84468,583.653909 C419.84468,574.384291 417.903559,546.687982 411,546.687982 C404.096441,546.687982 402.526066,577.026492 402.526066,583.653909 C402.526066,590.281326 402.902269,611.513983 409.805828,611.513983 Z" id="path-x-jyb13mc1-4"></path>
    </defs>
    <g id="Page-1" stroke="none" stroke-width="1" fill="none" fill-rule="evenodd">
        <g id="Artboard">
            <path d="M381.5,422.118802 C386.450417,419.260677 392.549583,419.260677 397.5,422.118802 L474.378901,466.505246 C478.815602,468.170503 483.817751,467.79582 488,465.381198 L555.919916,426.167539 C556.754553,425.959643 557.438658,425.907167 558.053166,425.978942 C568.072417,427.149204 536.380093,484.970274 526.216027,494.628215 C513.478032,506.731915 515.219941,518.876304 518.298546,530.37169 L518.526004,531.211648 C518.831955,532.33002 519.147577,533.442055 519.460665,534.547112 L519.694816,535.374586 C519.928111,536.200733 520.158265,537.022864 520.380128,537.840709 C524.377859,552.577377 516.176772,565.237428 505.139032,565.237428 C492.400087,565.237428 486.541543,551.234126 487.725787,537.840709 C488.910031,524.447292 488.910031,511.199938 482.716769,503.685655 C466.921223,484.520924 439.663028,480.030736 433.58498,503.685655 C430.856905,514.302944 433.136376,530.142349 435.772208,546.8549 L436.028244,548.474824 C436.156663,549.286002 436.285565,550.098897 436.414422,550.913014 L436.671923,552.542734 L436.92837,554.17484 C437.056174,554.991344 437.183232,555.808413 437.309016,556.625557 L437.558731,558.259795 C438.384412,563.70661 439.137887,569.142096 439.663028,574.420269 C442.38376,601.766254 436.597457,624.26436 414.665558,624.26436 C392.716769,624.26436 389.111334,593.813649 389.716769,574.420269 C390.566857,547.190115 401.7689,516.503401 401.7689,500.970206 C401.7689,474.374233 386.818131,468.942016 371.928153,468.942016 C327.878808,468.942016 347.097173,532.061114 300.716769,509.388825 C254.336365,486.716535 317.291464,614.053494 262.96147,614.053494 C242.073097,614.053494 242.073097,588.624891 248.126714,560.435693 C253.505904,535.387022 260.149074,506.395509 243.110364,468.942016 C241.120659,464.568362 237.524097,458.641238 233.800296,452.573347 L233.142134,451.501369 C232.922508,451.143748 232.702742,450.785927 232.483138,450.428194 L231.825115,449.355546 C225.255763,438.637464 219.1033,428.257371 221.499131,425.978942 C222.145983,425.363788 223.395112,425.317754 225.246518,425.840841 L292,464.381198 C296.950417,467.239323 303.049583,467.239323 308,464.381198 L339.836952,446 L340.136952,445.999717 Z" id="Combined-Shape" fill="#FFC12A"></path>
            <path d="M398,109.618802 L459.942286,145.381198 C464.892704,148.239323 467.942286,153.521355 467.942286,159.237604 L467.942286,230.762396 C467.942286,236.478645 464.892704,241.760677 459.942286,244.618802 L398,280.381198 C393.049583,283.239323 386.950417,283.239323 382,280.381198 L320.057714,244.618802 C315.107296,241.760677 312.057714,236.478645 312.057714,230.762396 L312.057714,159.237604 C312.057714,153.521355 315.107296,148.239323 320.057714,145.381198 L382,109.618802 C386.950417,106.760677 393.049583,106.760677 398,109.618802 Z" id="Polygon" fill="#FFC12A"></path>
            <g id="Polygon-Copy-2">
                <use fill="#FFC12A" xlink:href="#path-x-jyb13mc1-1"></use>
                <use fill-opacity="0.0472301136" fill="#000000" xlink:href="#path-x-jyb13mc1-1"></use>
            </g>
            <path d="M488,264.618802 L549.942286,300.381198 C554.892704,303.239323 557.942286,308.521355 557.942286,314.237604 L557.942286,385.762396 C557.942286,391.478645 554.892704,396.760677 549.942286,399.618802 L488,435.381198 C483.049583,438.239323 476.950417,438.239323 472,435.381198 L410.057714,399.618802 C405.107296,396.760677 402.057714,391.478645 402.057714,385.762396 L402.057714,314.237604 C402.057714,308.521355 405.107296,303.239323 410.057714,300.381198 L472,264.618802 C476.950417,261.760677 483.049583,261.760677 488,264.618802 Z" id="Polygon-Copy" fill="#FFC12A"></path>
            <g id="Polygon-Copy-6">
                <use fill="#FFC12A" xlink:href="#path-x-jyb13mc1-2"></use>
                <use fill-opacity="0.0472301136" fill="#000000" xlink:href="#path-x-jyb13mc1-2"></use>
            </g>
            <path d="M308,264.618802 L369.942286,300.381198 C374.892704,303.239323 377.942286,308.521355 377.942286,314.237604 L377.942286,385.762396 C377.942286,391.478645 374.892704,396.760677 369.942286,399.618802 L308,435.381198 C303.049583,438.239323 296.950417,438.239323 292,435.381198 L230.057714,399.618802 C225.107296,396.760677 222.057714,391.478645 222.057714,385.762396 L222.057714,314.237604 C222.057714,308.521355 225.107296,303.239323 230.057714,300.381198 L292,264.618802 C296.950417,261.760677 303.049583,261.760677 308,264.618802 Z" id="Polygon-Copy-3" fill="#FFC12A"></path>
            <g id="Polygon-Copy-4">
                <use fill="#FFC12A" xlink:href="#path-x-jyb13mc1-3"></use>
                <use fill-opacity="0.0472301136" fill="#000000" xlink:href="#path-x-jyb13mc1-3"></use>
            </g>
            <g id="Oval">
                <use fill="#FFC12A" xlink:href="#path-x-jyb13mc1-4"></use>
                <use fill-opacity="0.464679851" fill="#FFFFFF" xlink:href="#path-x-jyb13mc1-4"></use>
            </g>
        </g>
    </g>
</svg>